<svg xmlns="http://www.w3.org/2000/svg" xmlns:xlink="http://www.w3.org/1999/xlink" width="800" height="700" viewBox="0 0 800 700">
  <defs>
    <clipPath id="clip-path">
      <rect id="Rectangle_12389" data-name="Rectangle 12389" width="276.731" height="404.407" fill="none"/>
    </clipPath>
    <clipPath id="clip-Food_Delivery_Application_Development">
      <rect width="800" height="700"/>
    </clipPath>
  </defs>
  <g id="Food_Delivery_Application_Development" data-name="Food Delivery Application Development" clip-path="url(#clip-Food_Delivery_Application_Development)">
    <g id="Group_20788" data-name="Group 20788" transform="translate(-217.717 -113.898)">
      <g id="Group_19947" data-name="Group 19947" transform="translate(526.704 446.843)">
        <g id="Group_19945" data-name="Group 19945" transform="translate(0 0)">
          <path id="Path_76973" data-name="Path 76973" d="M1499.985,1160.584c-5.87,19.631-21.589,52.508-37.784,83.939a113.364,113.364,0,0,1-10.718-50.793q.051-2.587.212-5.167l-.619.455a116.152,116.152,0,0,0,5.376,42.731,108.485,108.485,0,0,0,5.4,13.439c-5.865,11.37-11.784,22.536-17.314,32.806l-2.343,4.34c-.38-.658-.815-1.577-.92-1.78-.842-1.644-1.616-3.307-2.379-4.98-1.287-2.828-2.566-5.655-3.587-8.588a181.631,181.631,0,0,1-9.2-41.746q-.7-7.072-.845-14.176l-.581.584a183.072,183.072,0,0,0,3.873,33.3,181.177,181.177,0,0,0,5.868,21.31c1.094,3.2,2.431,6.265,3.827,9.338.87,1.915,1.749,3.83,2.732,5.692a14.537,14.537,0,0,0,.873,1.668c-21.847,40.348-41.547,74.211-41.749,74.561a.506.506,0,0,0,.182.686.481.481,0,0,0,.253.067.506.506,0,0,0,.434-.253c.2-.338,18.445-31.708,39.294-70.034a.14.14,0,0,0,.04.015,58.816,58.816,0,0,0,9.818,1.53c4.561.406,9.143.55,13.723.539a146.939,146.939,0,0,0,29.578-2.748,51.736,51.736,0,0,0,13.028-4.247c.341-.174.039-.694-.3-.516a48.473,48.473,0,0,1-11.354,3.851,115.461,115.461,0,0,1-14.318,2.238,166.468,166.468,0,0,1-28.628.424,62.751,62.751,0,0,1-11.3-1.623l2.074-3.82a.471.471,0,0,0,.111,0,.326.326,0,0,0,.187-.554q1.239-2.291,2.486-4.6c5.223-9.7,10.8-20.2,16.34-30.915a.545.545,0,0,0,.08.006c15.915-.821,32.267-2.566,47.217-8.407a68.183,68.183,0,0,0,10.789-5.287l-.056-.667c-13.343,8.244-29.5,11.238-44.889,12.79-4.266.433-8.548.735-12.833.959.126-.253.261-.506.393-.759a.318.318,0,0,0,.32-.452c-.013-.03-.028-.058-.043-.088,16.558-32.1,32.688-65.825,38.433-85.561a.226.226,0,0,0,.009-.049Z" transform="translate(-1400.046 -1160.037)" fill="#bfceff"/>
        </g>
      </g>
      <g id="Group_20028" data-name="Group 20028" transform="translate(277.928 186.898)">
        <g id="Group_19949" data-name="Group 19949" transform="translate(0 0)">
          <path id="Path_76976" data-name="Path 76976" d="M870.816,339.435v460.95c0,15.263-8.908,33.446-25.929,33.446H630.879c-17.026,0-36.562-8.713-36.562-23.975V339.435c0-6.564,9.327-15.038,9.327-15.038s17.531-6.416,27.235-6.416H844.887C861.907,317.981,870.816,324.17,870.816,339.435Z" transform="translate(-593.185 -316.854)" fill="#fff"/>
          <g id="Group_19948" data-name="Group 19948">
            <path id="Path_76977" data-name="Path 76977" d="M842.345,832.418H628.337A51.521,51.521,0,0,1,603.1,826c-8.033-4.68-12.456-11.315-12.456-18.684V336.9c0-7.387,4.331-13.425,12.522-17.462,6.7-3.3,15.636-5.119,25.17-5.119H842.347c9.042,0,15.6,1.716,20.051,5.246,4.716,3.741,7.008,9.412,7.008,17.328V797.847a42.162,42.162,0,0,1-6.776,23.077C859.091,826.169,852.7,832.418,842.345,832.418ZM628.336,316.572c-9.057,0-17.866,1.781-24.168,4.886-7.476,3.684-11.268,8.879-11.268,15.441V807.323c0,14.113,18.394,22.849,35.437,22.849H842.344c17.112,0,24.808-18.9,24.808-32.319V336.9c0-14.058-7.651-20.328-24.808-20.328Z" transform="translate(-590.648 -314.316)" fill="#231e3b"/>
          </g>
        </g>
        <g id="Group_19950" data-name="Group 19950" transform="translate(100.778 470.025)">
          <path id="Path_76978" data-name="Path 76978" d="M987.9,1873.888H926.883a8.369,8.369,0,0,1-8.359-8.359V1851.88a8.369,8.369,0,0,1,8.359-8.359H987.9a8.369,8.369,0,0,1,8.359,8.359v13.649a8.369,8.369,0,0,1-8.361,8.359Zm-61.02-28.6a6.6,6.6,0,0,0-6.594,6.595v13.649a6.6,6.6,0,0,0,6.594,6.595H987.9a6.6,6.6,0,0,0,6.594-6.595V1851.88a6.6,6.6,0,0,0-6.594-6.595Z" transform="translate(-918.524 -1843.521)" fill="#231e3b"/>
        </g>
        <rect id="Rectangle_12378" data-name="Rectangle 12378" width="276.731" height="404.407" transform="translate(1.056 46.509)" fill="#f2f3f5"/>
        <g id="Group_19951" data-name="Group 19951" transform="translate(17.241 72.073)">
          <rect id="Rectangle_12379" data-name="Rectangle 12379" width="115.172" height="6.232" transform="matrix(0.407, -0.913, 0.913, 0.407, 0, 105.152)" fill="#fff"/>
        </g>
        <g id="Group_19952" data-name="Group 19952" transform="translate(79.815 222.767)">
          <rect id="Rectangle_12380" data-name="Rectangle 12380" width="6.232" height="124.169" transform="translate(0 5.266) rotate(-57.709)" fill="#fff"/>
        </g>
        <path id="Path_76979" data-name="Path 76979" d="M612.562,940.812l-.66,24.79H673.3l.4-24.763Z" transform="translate(-605.37 -748.247)" fill="#f87d41"/>
        <path id="Path_76980" data-name="Path 76980" d="M824.886,1446.71l-5.986,37.069s98.182-11.547,98.182-13.369,4.19-20.661,4.19-20.661Z" transform="translate(-748.744 -1098.648)" fill="#f87d41"/>
        <path id="Path_76981" data-name="Path 76981" d="M1355.864,744.843l-7.184,31.6,36.518.608V751.528Z" transform="translate(-1115.69 -612.512)" fill="#f87d41"/>
        <path id="Path_76982" data-name="Path 76982" d="M1398.273,483.868l-4.789,22.485,23.8,1.237,1.68-23.526Z" transform="translate(-1146.718 -431.752)" fill="#f87d41"/>
        <path id="Path_76983" data-name="Path 76983" d="M715.406,481.971c1.109,0,58.383,13.878,58.383,13.878l4.433-17.248Z" transform="translate(-677.06 -428.1)" fill="#f87d41"/>
        <path id="Path_76984" data-name="Path 76984" d="M615.163,1669.875l-.739,22.134,27.344-.379,6.281-28.131Z" transform="translate(-607.117 -1248.806)" fill="#f87d41"/>
        <path id="Path_76985" data-name="Path 76985" d="M1218.557,1565.21l76.858-12.752.369,34.882-79.075-.75Z" transform="translate(-1024.284 -1171.891)" fill="#a6caff"/>
        <path id="Path_76986" data-name="Path 76986" d="M1005.72,1094.8l68.242,2.024-4.638,34.3Z" transform="translate(-878.143 -854.9)" fill="#f87d41"/>
        <g id="Group_19953" data-name="Group 19953" transform="translate(95.794 25.492)">
          <path id="Path_76987" data-name="Path 76987" d="M985.126,404.817H906.912a4.537,4.537,0,0,1-4.6-4.078v-.149c0-1.934,1.935-3.338,4.6-3.338h78.214c2.614,0,4.441,1.372,4.441,3.338v.149A4.383,4.383,0,0,1,985.126,404.817Zm-78.214-6.893c-1.953,0-3.93.916-3.93,2.666v.149a3.9,3.9,0,0,0,3.93,3.407h78.214a3.74,3.74,0,0,0,3.769-3.407v-.149c0-1.57-1.549-2.666-3.769-2.666Z" transform="translate(-902.311 -397.252)" fill="#231e3b"/>
        </g>
        <g id="Group_19960" data-name="Group 19960" transform="translate(230.617 398.344)">
          <rect id="Rectangle_12381" data-name="Rectangle 12381" width="36.685" height="37.238" rx="4.688" fill="#fff"/>
          <g id="Group_19959" data-name="Group 19959" transform="translate(5.689 5.813)">
            <g id="Group_19954" data-name="Group 19954" transform="translate(2.327 2.656)">
              <path id="Path_76988" data-name="Path 76988" d="M1378.024,1658.159a10.146,10.146,0,1,1,10-10.145,10.146,10.146,0,0,1-10,10.145Zm0-19.044a9.021,9.021,0,1,1,0,.009Z" transform="translate(-1367.735 -1637.866)" fill="#c6c0d4"/>
            </g>
            <ellipse id="Ellipse_413" data-name="Ellipse 413" cx="6.532" cy="6.63" rx="6.532" ry="6.63" transform="translate(6.086 6.177)" fill="#c6c0d4"/>
            <g id="Group_19955" data-name="Group 19955" transform="translate(12.011)">
              <rect id="Rectangle_12382" data-name="Rectangle 12382" width="1.247" height="3.261" fill="#c6c0d4"/>
            </g>
            <g id="Group_19956" data-name="Group 19956" transform="translate(0 12.509)">
              <rect id="Rectangle_12383" data-name="Rectangle 12383" width="3.211" height="1.246" fill="#c6c0d4"/>
            </g>
            <g id="Group_19957" data-name="Group 19957" transform="translate(12.314 22.352)">
              <rect id="Rectangle_12384" data-name="Rectangle 12384" width="1.247" height="3.261" fill="#c6c0d4"/>
            </g>
            <g id="Group_19958" data-name="Group 19958" transform="translate(22.095 12.202)">
              <rect id="Rectangle_12385" data-name="Rectangle 12385" width="3.211" height="1.246" fill="#c6c0d4"/>
            </g>
          </g>
        </g>
        <g id="Group_19968" data-name="Group 19968" transform="translate(1.056 46.509)">
          <g id="Group_19967" data-name="Group 19967" clip-path="url(#clip-path)">
            <g id="Group_19961" data-name="Group 19961" transform="translate(162.345 -7.459)">
              <path id="Path_76989" data-name="Path 76989" d="M1130.851,873.658l-8.6-1.455c19.257-113.884,73-427.691,73.54-430.847l8.6,1.472C1203.844,445.984,1150.1,759.782,1130.851,873.658Z" transform="translate(-1122.25 -441.356)" fill="#fff"/>
            </g>
            <g id="Group_19962" data-name="Group 19962" transform="translate(29.303 -4.13)">
              <path id="Path_76990" data-name="Path 76990" d="M697.821,918.672l-8.288-2.723a3.8,3.8,0,0,0-.106.386c1.3-6.213,60.043-356.837,78.017-464.156l8.6,1.441C698.509,916.57,698.027,918.039,697.821,918.672Z" transform="translate(-689.426 -452.178)" fill="#fff"/>
            </g>
            <g id="Group_19963" data-name="Group 19963" transform="translate(0.029 128.363)">
              <path id="Path_76991" data-name="Path 76991" d="M878.951,892.526l-194.481-.379-90.289-.153.015-8.727,90.289.153,194.483.379Z" transform="translate(-594.18 -883.266)" fill="#fff"/>
            </g>
            <g id="Group_19964" data-name="Group 19964" transform="translate(-5.284 1.799)">
              <rect id="Rectangle_12386" data-name="Rectangle 12386" width="8.723" height="292.545" transform="matrix(0.264, -0.964, 0.964, 0.264, 0, 8.413)" fill="#fff"/>
            </g>
            <g id="Group_19965" data-name="Group 19965" transform="translate(0.035 239.973)">
              <rect id="Rectangle_12387" data-name="Rectangle 12387" width="278.878" height="8.723" fill="#fff"/>
            </g>
            <g id="Group_19966" data-name="Group 19966" transform="translate(-7.211 316.379)">
              <rect id="Rectangle_12388" data-name="Rectangle 12388" width="290.294" height="8.723" transform="translate(0 44.215) rotate(-8.761)" fill="#fff"/>
            </g>
          </g>
        </g>
        <g id="Group_19973" data-name="Group 19973" transform="translate(17.304 57.132)">
          <rect id="Rectangle_12390" data-name="Rectangle 12390" width="244.237" height="31.785" rx="8.607" fill="#fff"/>
          <g id="Group_19969" data-name="Group 19969" transform="translate(213.866 3.305)">
            <rect id="Rectangle_12391" data-name="Rectangle 12391" width="0.624" height="25.821" fill="#c6c0d4"/>
          </g>
          <g id="Group_19972" data-name="Group 19972" transform="translate(12.165 9.253)">
            <g id="Group_19970" data-name="Group 19970" transform="translate(0 0)">
              <path id="Path_76992" data-name="Path 76992" d="M693.921,543.984a6.849,6.849,0,1,1,6.757-6.849A6.849,6.849,0,0,1,693.921,543.984Zm0-12.451a5.6,5.6,0,1,0,5.511,5.6,5.6,5.6,0,0,0-5.511-5.6Z" transform="translate(-686.98 -530.286)" fill="#c6c0d4"/>
            </g>
            <g id="Group_19971" data-name="Group 19971" transform="translate(11.048 10.661)">
              <rect id="Rectangle_12392" data-name="Rectangle 12392" width="1.246" height="8.409" transform="translate(0 0.888) rotate(-45.44)" fill="#c6c0d4"/>
            </g>
          </g>
        </g>
        <g id="Group_20018" data-name="Group 20018" transform="translate(55.193 84.253)">
          <g id="Group_19974" data-name="Group 19974" transform="translate(0 0)">
            <path id="Path_76993" data-name="Path 76993" d="M805.615,588.424a30.094,30.094,0,0,0-28.323,31.763c.832,16.722,13.632,40.863,30.824,57.906,13.087-13.645,29.668-44.151,28.838-60.873a30.094,30.094,0,0,0-31.339-28.8Zm3.062,54.124a21.924,21.924,0,1,1,.006,0Z" transform="translate(-775.091 -588.396)" fill="#f9580a"/>
            <path id="Path_76994" data-name="Path 76994" d="M798.619,588.772A30.094,30.094,0,0,0,770.3,620.535c.832,16.722,15.571,40.429,32.759,57.471,13.932-17.109,27.729-43.716,26.9-60.439a30.094,30.094,0,0,0-31.332-28.795Zm3.062,54.124a18.648,18.648,0,1,1,17.42-19.535,18.648,18.648,0,0,1-17.42,19.535Z" transform="translate(-770.245 -588.638)" fill="#f87d41"/>
          </g>
          <g id="Group_19975" data-name="Group 19975" transform="translate(58.999 24.217)">
            <path id="Path_76995" data-name="Path 76995" d="M962.325,668.4a6.286,6.286,0,0,0,1.554-.329.481.481,0,0,0-.157-.864,3.2,3.2,0,0,0-.836.065c-.253.033-.506.065-.751.11a.52.52,0,1,0,.19,1.012Z" transform="translate(-961.639 -667.201)" fill="#f87d41"/>
          </g>
          <g id="Group_19976" data-name="Group 19976" transform="translate(59.25 27.797)">
            <path id="Path_76996" data-name="Path 76996" d="M962.9,680c.387-.019.777,0,1.162-.027s.921-.068.906-.569c-.027-.858-1.618-.467-2.117-.386-.61.1-.6,1.012.049.983Z" transform="translate(-962.407 -678.856)" fill="#f87d41"/>
          </g>
          <g id="Group_19977" data-name="Group 19977" transform="translate(59.444 32.059)">
            <path id="Path_76997" data-name="Path 76997" d="M963.516,693.666a5.646,5.646,0,0,0,1.705-.1.435.435,0,0,0-.042-.832,5.64,5.64,0,0,0-1.706.07.431.431,0,0,0,.043.861Z" transform="translate(-963.063 -692.699)" fill="#f87d41"/>
          </g>
          <g id="Group_19978" data-name="Group 19978" transform="translate(59.148 35.445)">
            <path id="Path_76998" data-name="Path 76998" d="M962.192,704.61a1.4,1.4,0,0,0,.792.237,7.645,7.645,0,0,0,.885.065c.632-.009.759-1.08.1-1.138a7.572,7.572,0,0,0-.885-.023,1.5,1.5,0,0,0-.83.153.454.454,0,0,0-.056.711Z" transform="translate(-962.05 -703.742)" fill="#f87d41"/>
          </g>
          <g id="Group_19979" data-name="Group 19979" transform="translate(58.172 39.352)">
            <path id="Path_76999" data-name="Path 76999" d="M959.235,717.181a7.385,7.385,0,0,1,.976.138,1.3,1.3,0,0,0,.945-.018.341.341,0,0,0,.1-.467c-.214-.319-.616-.324-.961-.357a4.192,4.192,0,0,0-1.092.022.341.341,0,0,0,.034.682Z" transform="translate(-958.89 -716.452)" fill="#f87d41"/>
          </g>
          <g id="Group_19980" data-name="Group 19980" transform="translate(57.439 43.113)">
            <path id="Path_77000" data-name="Path 77000" d="M956.606,729.523a1.34,1.34,0,0,0,.885.244c.158.015.318.038.477.043a.68.68,0,0,0,.514-.207.477.477,0,0,0-.033-.663c-.238-.253-.6-.195-.918-.2a1.33,1.33,0,0,0-.869.147.407.407,0,0,0-.049.632Z" transform="translate(-956.485 -728.725)" fill="#f87d41"/>
          </g>
          <g id="Group_19981" data-name="Group 19981" transform="translate(56.247 46.913)">
            <path id="Path_77001" data-name="Path 77001" d="M953.034,742.122a9.825,9.825,0,0,0,1.124.1c.624,0,.73-1.027.095-1.112a9.915,9.915,0,0,0-1.13-.049C952.526,741.051,952.428,742.055,953.034,742.122Z" transform="translate(-952.625 -741.06)" fill="#f87d41"/>
          </g>
          <g id="Group_19982" data-name="Group 19982" transform="translate(54.46 50.484)">
            <path id="Path_77002" data-name="Path 77002" d="M947.038,753.652a2.623,2.623,0,0,0,.885.135c.315.038.75.177,1.023-.032a.524.524,0,0,0,.065-.812c-.235-.244-.718-.2-1.037-.215a1.436,1.436,0,0,0-.969.126.468.468,0,0,0,.039.8Z" transform="translate(-946.801 -752.695)" fill="#f87d41"/>
          </g>
          <g id="Group_19983" data-name="Group 19983" transform="translate(53.454 54.324)">
            <path id="Path_77003" data-name="Path 77003" d="M943.64,765.891a1.217,1.217,0,0,0,.7.207c.178.022.354.051.53.081.614.1.826-.841.211-.946a3.52,3.52,0,0,0-.632-.038,1.517,1.517,0,0,0-.759.1.38.38,0,0,0-.047.6Z" transform="translate(-943.524 -765.183)" fill="#f87d41"/>
          </g>
          <g id="Group_19984" data-name="Group 19984" transform="translate(52.218 56.87)">
            <path id="Path_77004" data-name="Path 77004" d="M939.929,774.5a3.543,3.543,0,0,0,.966.119.53.53,0,0,0,.5-.487.536.536,0,0,0-.41-.564,3.514,3.514,0,0,0-.966-.115.526.526,0,0,0-.5.486.533.533,0,0,0,.409.563Z" transform="translate(-939.518 -773.448)" fill="#f87d41"/>
          </g>
          <g id="Group_19985" data-name="Group 19985" transform="translate(51.003 59.718)">
            <path id="Path_77005" data-name="Path 77005" d="M935.7,783.377a1.349,1.349,0,0,0,.551.253,3.993,3.993,0,0,0,.548.157.469.469,0,0,0,.534-.3.462.462,0,0,0-.219-.569,2.2,2.2,0,0,0-1.278-.2.379.379,0,0,0-.136.645Z" transform="translate(-935.573 -782.703)" fill="#f87d41"/>
          </g>
          <g id="Group_19986" data-name="Group 19986" transform="translate(58.071 20.268)">
            <path id="Path_77006" data-name="Path 77006" d="M959.146,655.625a8.5,8.5,0,0,0,1.518-.263.525.525,0,0,0-.19-1.012,4.378,4.378,0,0,0-1.6.448.439.439,0,1,0,.276.833Z" transform="translate(-958.572 -654.35)" fill="#f87d41"/>
          </g>
          <g id="Group_19987" data-name="Group 19987" transform="translate(55.419 14.592)">
            <path id="Path_77007" data-name="Path 77007" d="M950.3,637.361a3.1,3.1,0,0,0,1.212-.193c.386-.116.822-.22.941-.658a.535.535,0,0,0-.4-.632,2.529,2.529,0,0,0-.973.162,2.722,2.722,0,0,0-.942.407c-.291.243-.316.865.167.919Z" transform="translate(-949.926 -635.876)" fill="#f87d41"/>
          </g>
          <g id="Group_19988" data-name="Group 19988" transform="translate(53.813 11.878)">
            <path id="Path_77008" data-name="Path 77008" d="M945.335,628.762a3.1,3.1,0,0,0,.708-.171c.206-.083.38-.221.589-.3a.607.607,0,0,0-.38-1.154,8.525,8.525,0,0,0-1.138.415.623.623,0,0,0-.412.706.616.616,0,0,0,.632.506Z" transform="translate(-944.691 -627.103)" fill="#f87d41"/>
          </g>
          <g id="Group_19989" data-name="Group 19989" transform="translate(52.058 9.927)">
            <path id="Path_77009" data-name="Path 77009" d="M939.332,622.19a4.894,4.894,0,0,0,1.128-.368c.326-.152.741-.3.813-.686a.354.354,0,0,0-.18-.379c-.393-.164-.729.075-1.068.284a5.154,5.154,0,0,0-.952.759c-.187.193.04.432.253.392Z" transform="translate(-939.005 -620.703)" fill="#f87d41"/>
          </g>
          <g id="Group_19990" data-name="Group 19990" transform="translate(50.514 7.634)">
            <path id="Path_77010" data-name="Path 77010" d="M934.184,614.564a1.06,1.06,0,0,0,.793-.188,1.771,1.771,0,0,0,.658-.558c.19-.291-.164-.646-.463-.544a2.465,2.465,0,0,0-.651.4,1.235,1.235,0,0,0-.506.529.253.253,0,0,0,.167.359Z" transform="translate(-933.988 -613.256)" fill="#f87d41"/>
          </g>
          <g id="Group_19991" data-name="Group 19991" transform="translate(48.538 6.05)">
            <path id="Path_77011" data-name="Path 77011" d="M927.951,609.489a5.873,5.873,0,0,0,1.274-.714c.3-.225.082-.814-.306-.632a5.939,5.939,0,0,0-1.247.768c-.264.212-.087.735.28.582Z" transform="translate(-927.545 -608.109)" fill="#f87d41"/>
          </g>
          <g id="Group_19992" data-name="Group 19992" transform="translate(46.659 4.648)">
            <path id="Path_77012" data-name="Path 77012" d="M921.9,604.984c.195-.044.341-.231.493-.357a2.732,2.732,0,0,0,.454-.431.386.386,0,0,0-.495-.579,2.044,2.044,0,0,0-.517.409,1.212,1.212,0,0,0-.4.539.364.364,0,0,0,.464.421Z" transform="translate(-921.427 -603.56)" fill="#f87d41"/>
          </g>
          <g id="Group_19993" data-name="Group 19993" transform="translate(44.709 3.331)">
            <path id="Path_77013" data-name="Path 77013" d="M915.538,600.614a.783.783,0,0,0,.326-.126q.085-.058.166-.126a1.455,1.455,0,0,0,.392-.415.474.474,0,0,0-.677-.612,2.263,2.263,0,0,0-.325.313,1.475,1.475,0,0,0-.286.33.439.439,0,0,0,.022.434.42.42,0,0,0,.379.195Z" transform="translate(-915.088 -599.262)" fill="#f87d41"/>
          </g>
          <g id="Group_19994" data-name="Group 19994" transform="translate(42.734 2.352)">
            <path id="Path_77014" data-name="Path 77014" d="M909.26,597.433a1.536,1.536,0,0,0,.348-.359c.095-.118.185-.239.277-.359a.358.358,0,1,0-.53-.481c-.113.1-.228.2-.339.3a1.52,1.52,0,0,0-.33.38.4.4,0,0,0,.574.52Z" transform="translate(-908.645 -596.107)" fill="#f87d41"/>
          </g>
          <g id="Group_19995" data-name="Group 19995" transform="translate(40.865 1.61)">
            <path id="Path_77015" data-name="Path 77015" d="M902.876,594.689a.4.4,0,0,0,.273-.135c.049-.049.1-.1.144-.153a1.934,1.934,0,0,0,.267-.36.271.271,0,0,0-.386-.349,1.983,1.983,0,0,0-.342.293l-.126.138a.405.405,0,0,0-.126.3A.283.283,0,0,0,902.876,594.689Z" transform="translate(-902.58 -593.651)" fill="#f87d41"/>
          </g>
          <g id="Group_19996" data-name="Group 19996" transform="translate(38.75 0.907)">
            <path id="Path_77016" data-name="Path 77016" d="M896.18,592.352a.656.656,0,0,0,.143-.116c.03-.037.057-.078.087-.116a2.343,2.343,0,0,1,.185-.2.326.326,0,0,0-.421-.492,2.989,2.989,0,0,0-.268.239c-.034.034-.067.07-.1.106a.6.6,0,0,0-.115.244.323.323,0,0,0,.487.338Z" transform="translate(-895.687 -591.371)" fill="#f87d41"/>
          </g>
          <g id="Group_19997" data-name="Group 19997" transform="translate(56.534 17.036)">
            <path id="Path_77017" data-name="Path 77017" d="M954.264,645.329c.514-.157,1.035-.3,1.553-.438a.53.53,0,0,0,.334-.663.538.538,0,0,0-.663-.334,7.207,7.207,0,0,0-1.533.5.492.492,0,1,0,.307.935Z" transform="translate(-953.617 -643.872)" fill="#f87d41"/>
          </g>
          <g id="Group_19998" data-name="Group 19998" transform="translate(49.716 61.943)">
            <path id="Path_77018" data-name="Path 77018" d="M931.376,790.369c.014.536.8.732,1.219.83a.538.538,0,1,0,.234-1.05c-.253-.068-.5-.126-.751-.181C931.792,789.908,931.366,789.992,931.376,790.369Z" transform="translate(-931.376 -789.95)" fill="#f87d41"/>
          </g>
          <g id="Group_19999" data-name="Group 19999" transform="translate(48.173 64.556)">
            <path id="Path_77019" data-name="Path 77019" d="M926.966,798.881c.175.455.785.54,1.164.75.478.264.868-.488.391-.753a3.051,3.051,0,0,0-.688-.354.886.886,0,0,0-.744.009.306.306,0,0,0-.126.348Z" transform="translate(-926.948 -798.447)" fill="#f87d41"/>
          </g>
          <g id="Group_20000" data-name="Group 20000" transform="translate(47.202 66.68)">
            <path id="Path_77020" data-name="Path 77020" d="M923.824,805.892a1.011,1.011,0,0,0,.516.319c.2.073.391.159.593.215a.454.454,0,0,0,.535-.34.459.459,0,0,0-.34-.535c-.174-.059-.359-.092-.537-.135a1.012,1.012,0,0,0-.588-.033.343.343,0,0,0-.178.506Z" transform="translate(-923.772 -805.353)" fill="#f87d41"/>
          </g>
          <g id="Group_20001" data-name="Group 20001" transform="translate(46.097 68.719)">
            <path id="Path_77021" data-name="Path 77021" d="M920.251,812.4a1.3,1.3,0,0,0,.527.38,3.231,3.231,0,0,0,.616.3.325.325,0,0,0,.287-.554,2.466,2.466,0,0,0-.607-.317,1.556,1.556,0,0,0-.632-.2.253.253,0,0,0-.2.386Z" transform="translate(-920.207 -812.009)" fill="#f87d41"/>
          </g>
          <g id="Group_20002" data-name="Group 20002" transform="translate(44.99 70.641)">
            <path id="Path_77022" data-name="Path 77022" d="M916.59,818.666c.11.275.358.35.611.46s.444.242.73.134a.154.154,0,0,0,.1-.191.562.562,0,0,0-.18-.3c-.1-.076-.214-.126-.312-.2-.2-.146-.388-.35-.66-.325a.32.32,0,0,0-.285.415Z" transform="translate(-916.575 -818.249)" fill="#f87d41"/>
          </g>
          <g id="Group_20003" data-name="Group 20003" transform="translate(44.225 72.449)">
            <path id="Path_77023" data-name="Path 77023" d="M914.188,824.52c.115.113.231.223.352.329a.722.722,0,0,0,.483.268.288.288,0,0,0,.253-.379.438.438,0,0,0-.214-.234c-.071-.038-.145-.07-.218-.105-.143-.071-.283-.148-.422-.226-.216-.126-.407.181-.24.345Z" transform="translate(-914.118 -824.142)" fill="#f87d41"/>
          </g>
          <g id="Group_20004" data-name="Group 20004" transform="translate(43.147 73.556)">
            <path id="Path_77024" data-name="Path 77024" d="M910.766,828.324c.282.144.553.32.842.447a.353.353,0,0,0,.325-.625,4.845,4.845,0,0,0-.874-.379.329.329,0,0,0-.429.135.322.322,0,0,0,.135.429Z" transform="translate(-910.596 -827.733)" fill="#f87d41"/>
          </g>
          <g id="Group_20005" data-name="Group 20005" transform="translate(42.349 75.133)">
            <path id="Path_77025" data-name="Path 77025" d="M908.03,833.207a5.671,5.671,0,0,0,.506.335,2.717,2.717,0,0,0,.527.292c.209.071.323-.225.185-.357a2.644,2.644,0,0,0-.478-.31,5.538,5.538,0,0,0-.506-.282c-.192-.09-.409.178-.223.32Z" transform="translate(-907.971 -832.868)" fill="#f87d41"/>
          </g>
          <g id="Group_20006" data-name="Group 20006" transform="translate(41.381 76.571)">
            <path id="Path_77026" data-name="Path 77026" d="M904.888,837.839a1.057,1.057,0,0,0,.1.214,1.17,1.17,0,0,0,.194.164c.126.095.244.183.359.288.355.325.869-.245.506-.553a1.865,1.865,0,0,0-.451-.281l-.2-.087a.449.449,0,0,0-.182-.046h-.047q-.1.049-.068,0a.2.2,0,0,0-.208.3Z" transform="translate(-904.858 -837.535)" fill="#f87d41"/>
          </g>
          <g id="Group_20007" data-name="Group 20007" transform="translate(40.338 78.056)">
            <path id="Path_77027" data-name="Path 77027" d="M901.537,842.735a1.7,1.7,0,0,0,.147.169c.056.047.116.087.172.133.126.1.245.213.379.312.4.309.832-.325.393-.565-.157-.086-.3-.183-.46-.273a.85.85,0,0,0-.506-.126.2.2,0,0,0-.127.349Z" transform="translate(-901.472 -842.382)" fill="#f87d41"/>
          </g>
          <g id="Group_20008" data-name="Group 20008" transform="translate(39.487 79.468)">
            <path id="Path_77028" data-name="Path 77028" d="M898.7,847.15a.646.646,0,0,0,.3.379,5.352,5.352,0,0,0,.468.324.3.3,0,0,0,.306-.015.318.318,0,0,0,.138-.269.3.3,0,0,0-.163-.253c-.157-.094-.32-.181-.479-.268a.547.547,0,0,0-.487-.067.139.139,0,0,0-.086.172Z" transform="translate(-898.696 -846.951)" fill="#f87d41"/>
          </g>
          <g id="Group_20009" data-name="Group 20009" transform="translate(38.703 81.008)">
            <path id="Path_77029" data-name="Path 77029" d="M896.19,852.277a.986.986,0,0,0,.126.153,1.174,1.174,0,0,0,.162.1,2.931,2.931,0,0,0,.339.164.263.263,0,0,0,.344-.109.253.253,0,0,0-.109-.344c-.113-.056-.228-.1-.343-.158a1.365,1.365,0,0,0-.173-.076,1.515,1.515,0,0,0-.194-.021.172.172,0,0,0-.152.292Z" transform="translate(-896.139 -851.982)" fill="#f87d41"/>
          </g>
          <g id="Group_20010" data-name="Group 20010" transform="translate(37.801 81.986)">
            <path id="Path_77030" data-name="Path 77030" d="M893.205,855.5c.03.044.058.091.09.134a.854.854,0,0,0,.173.149c.1.077.2.159.291.242a.325.325,0,1,0,.436-.482c-.126-.09-.253-.173-.379-.253a.784.784,0,0,0-.207-.1,1.5,1.5,0,0,0-.228-.023c-.167-.014-.253.211-.17.334Z" transform="translate(-893.179 -855.164)" fill="#f87d41"/>
          </g>
          <g id="Group_20011" data-name="Group 20011" transform="translate(36.716 83.449)">
            <path id="Path_77031" data-name="Path 77031" d="M889.707,860.219a.935.935,0,0,0,.321.253l.347.219a.276.276,0,0,0,.326-.058.228.228,0,0,0,.063-.127.277.277,0,0,0-.141-.3l-.371-.173a.914.914,0,0,0-.387-.127.206.206,0,0,0-.162.316Z" transform="translate(-889.672 -859.907)" fill="#f87d41"/>
          </g>
          <g id="Group_20012" data-name="Group 20012" transform="translate(36.146 84.531)">
            <path id="Path_77032" data-name="Path 77032" d="M887.909,863.744c.18.1.379.175.553.28a.215.215,0,0,0,.221-.011.219.219,0,0,0,.1-.194.215.215,0,0,0-.118-.183,1.6,1.6,0,0,0-.688-.2.164.164,0,0,0-.067.307Z" transform="translate(-887.824 -863.438)" fill="#f87d41"/>
          </g>
          <g id="Group_20013" data-name="Group 20013" transform="translate(35.441 85.425)">
            <path id="Path_77033" data-name="Path 77033" d="M885.533,866.588a.355.355,0,0,0,.086.161,1.219,1.219,0,0,0,.144.1c.037.025-.044-.034.015.011l.048.037a1.189,1.189,0,0,0,.153.111.269.269,0,0,0,.3-.436,1.051,1.051,0,0,0-.278-.159,1.112,1.112,0,0,0-.15-.061.386.386,0,0,0-.208.013.18.18,0,0,0-.114.225Z" transform="translate(-885.524 -866.343)" fill="#f87d41"/>
          </g>
          <g id="Group_20014" data-name="Group 20014" transform="translate(34.655 86.469)">
            <path id="Path_77034" data-name="Path 77034" d="M883.006,869.963a.948.948,0,0,1,.071.109.381.381,0,0,0,.127.126l.239.163a.242.242,0,1,0,.223-.428l-.242-.126a.363.363,0,0,0-.161-.049,1.074,1.074,0,0,1-.114-.009c-.11-.018-.228.109-.148.213Z" transform="translate(-882.975 -869.748)" fill="#f87d41"/>
          </g>
          <g id="Group_20015" data-name="Group 20015" transform="translate(34.003 87.276)">
            <path id="Path_77035" data-name="Path 77035" d="M880.849,872.66c.03.157.171.234.29.323a.307.307,0,0,0,.454-.053.3.3,0,0,0-.108-.444c-.161-.06-.333-.159-.506-.087a.216.216,0,0,0-.126.263Z" transform="translate(-880.844 -872.373)" fill="#f87d41"/>
          </g>
          <g id="Group_20016" data-name="Group 20016" transform="translate(33.315 88.214)">
            <path id="Path_77036" data-name="Path 77036" d="M878.609,875.678a.6.6,0,0,0,.24.212.223.223,0,1,0,.2-.395.593.593,0,0,0-.314-.076.169.169,0,0,0-.126.253Z" transform="translate(-878.591 -875.42)" fill="#f87d41"/>
          </g>
          <g id="Group_20017" data-name="Group 20017" transform="translate(40.785 13.125)">
            <path id="Path_77037" data-name="Path 77037" d="M903.043,631.52a22.822,22.822,0,0,1,7.866,6.606,19.365,19.365,0,0,1,2.375,4.437,27.259,27.259,0,0,1,1.391,5.12.3.3,0,0,0,.6-.03,13.647,13.647,0,0,0-.856-5.468,19.362,19.362,0,0,0-2.614-4.792,16.292,16.292,0,0,0-8.627-6.268.213.213,0,0,0-.144.395Z" transform="translate(-902.928 -631.12)" fill="#f9580a"/>
          </g>
        </g>
        <g id="Group_20026" data-name="Group 20026" transform="translate(69.784 172.285)">
          <g id="Group_20019" data-name="Group 20019" transform="translate(17.53 0)">
            <rect id="Rectangle_12393" data-name="Rectangle 12393" width="1.69" height="0.845" transform="translate(0 1.671) rotate(-81.546)" fill="#f87d41"/>
          </g>
          <g id="Group_20020" data-name="Group 20020" transform="translate(0.818 4.972)">
            <path id="Path_77038" data-name="Path 77038" d="M821.175,1000.071l-.835-.126.492-3.3.835.126Zm.983-6.6-.835-.126.492-3.3.835.126Zm.984-6.6-.836-.126.492-3.3.835.126Zm.983-6.6-.835-.126.492-3.3.835.126Zm.984-6.6-.835-.126.492-3.3.835.126Zm.984-6.6-.835-.126.492-3.3.835.126Zm.983-6.6-.835-.126.492-3.3.835.126Zm.984-6.6-.836-.126.492-3.3.835.126Zm.983-6.6-.835-.126.492-3.3.835.126Zm.984-6.6-.835-.126.492-3.3.835.126Zm.983-6.6-.835-.126.492-3.3.835.126Zm.984-6.6-.836-.126.492-3.3.835.126Zm.983-6.6-.836-.126.492-3.3.835.126Zm.983-6.6-.836-.126.492-3.3.835.126Zm.983-6.6-.835-.126.492-3.3.835.126Zm.984-6.6-.835-.126.492-3.3.835.126Zm.983-6.6-.835-.126.492-3.3.835.126Z" transform="translate(-820.34 -891.006)" fill="#f87d41"/>
          </g>
          <g id="Group_20021" data-name="Group 20021" transform="translate(0 117.211)">
            <path id="Path_77039" data-name="Path 77039" d="M817.691,1258.332l.321-2.158.835.126-.176,1.183,1.2-.008v.845Z" transform="translate(-817.691 -1256.174)" fill="#f87d41"/>
          </g>
          <g id="Group_20022" data-name="Group 20022" transform="translate(5.554 117.718)">
            <path id="Path_77040" data-name="Path 77040" d="M835.747,1259.429v-.845l3.373-.021v.845Zm6.745-.044v-.845l3.373-.021v.845Zm6.745-.044v-.845l3.372-.021v.845Zm6.745-.044v-.845l3.372-.021v.845Zm6.745-.044v-.845l3.372-.021v.845Zm6.745-.044v-.845l3.372-.021v.845Zm6.745-.044v-.845l3.372-.023v.845Zm6.744-.044v-.845l3.373-.021v.845Zm6.745-.044v-.844l3.373-.021v.844Zm6.745-.044v-.845l3.372-.023v.845Zm6.745-.044v-.845l3.372-.023v.845Zm6.745-.044v-.845l3.372-.021v.845Zm6.745-.044v-.845l3.372-.021v.845Zm6.744-.044v-.845l3.373-.023v.845Zm6.745-.044v-.845l3.372-.023v.845Zm6.745-.044v-.845l3.373-.021v.844Zm6.745-.044v-.845l3.372-.023v.845Zm6.745-.044v-.845l3.372-.023v.845Z" transform="translate(-835.747 -1257.808)" fill="#f87d41"/>
          </g>
          <g id="Group_20023" data-name="Group 20023" transform="translate(126.968 117.68)">
            <path id="Path_77041" data-name="Path 77041" d="M1232.535,1259.853l-.83-.156.216-1.157-1.177.008v-.845l2.2-.014Z" transform="translate(-1230.745 -1257.689)" fill="#f87d41"/>
          </g>
          <g id="Group_20024" data-name="Group 20024" transform="translate(111.469 123.058)">
            <path id="Path_77042" data-name="Path 77042" d="M1181.184,1359.716l-.83-.156.632-3.375.83.156Zm1.265-6.749-.83-.156.632-3.375.831.156Zm1.265-6.749-.83-.156.632-3.375.83.156Zm1.265-6.749-.83-.156.632-3.375.831.156Zm1.265-6.749-.83-.156.632-3.375.83.156Zm1.265-6.749-.83-.156.632-3.375.831.156Zm1.265-6.749-.83-.156.632-3.375.83.156Zm1.265-6.749-.831-.156.632-3.374.83.156Zm1.265-6.749-.83-.156.632-3.375.83.156Zm1.265-6.749-.83-.156.632-3.375.831.156Zm1.265-6.749-.831-.156.632-3.375.83.156Zm1.265-6.749-.83-.156.632-3.375.83.156Zm1.265-6.749-.83-.156.632-3.375.83.156Z" transform="translate(-1180.354 -1275.196)" fill="#f87d41"/>
          </g>
          <g id="Group_20025" data-name="Group 20025" transform="translate(110.528 210.798)">
            <rect id="Rectangle_12394" data-name="Rectangle 12394" width="1.689" height="0.845" transform="matrix(0.184, -0.983, 0.983, 0.184, 0, 1.66)" fill="#f87d41"/>
          </g>
        </g>
        <g id="Group_20027" data-name="Group 20027" transform="translate(0 0)">
          <path id="Path_77043" data-name="Path 77043" d="M842.345,832.418H628.337A51.521,51.521,0,0,1,603.1,826c-8.033-4.68-12.456-11.315-12.456-18.684V336.9c0-7.387,4.331-13.425,12.522-17.462,6.7-3.3,15.636-5.119,25.17-5.119H842.347c9.042,0,15.6,1.716,20.051,5.246,4.716,3.741,7.008,9.412,7.008,17.328V797.847a42.162,42.162,0,0,1-6.776,23.077C859.091,826.169,852.7,832.418,842.345,832.418ZM628.336,316.572c-9.057,0-17.866,1.781-24.168,4.886-7.476,3.684-11.268,8.879-11.268,15.441V807.323c0,14.113,18.394,22.849,35.437,22.849H842.344c17.112,0,24.808-18.9,24.808-32.319V336.9c0-14.058-7.651-20.328-24.808-20.328Z" transform="translate(-590.648 -314.316)" fill="#231e3b"/>
        </g>
      </g>
      <g id="Group_20122" data-name="Group 20122" transform="translate(429.252 252.143)">
        <g id="Group_20058" data-name="Group 20058" transform="translate(176.174 127.997)">
          <path id="Path_77251" data-name="Path 77251" d="M2168.758,1193.83s10.925.208,17.42,3.744a1.819,1.819,0,0,1,.365.26c4.6,4.242,5.406,14.117-.246,16.754a13.014,13.014,0,0,1-4.6.361s2.772-5.818,1.1-7.992c-1.813-2.363-14.218-1.293-14.218-1.293Z" transform="translate(-2011.07 -1116.735)" fill="#fca88b"/>
          <g id="Group_20057" data-name="Group 20057" transform="translate(0 0)">
            <path id="Path_77252" data-name="Path 77252" d="M1657.532,973.231c1.595,8.768,12.412,43.779,27.1,50.466,44.874,20.422,106.465,18.89,125.919,2.4,1.448-1.74.453-8.876-.2-8.95-10.26-1.138-74.812-9.424-86.529-13.8-2.838-1.061-19.857-16.544-25.8-24.61-7.38-9.992-21.712-42.943-35.054-34.317C1653.915,950.293,1655.913,964.328,1657.532,973.231Z" transform="translate(-1656.137 -942.995)" fill="#ffccbc"/>
            <path id="Path_77253" data-name="Path 77253" d="M2149.862,1186.95s5.05.2,5.4,1.026.41,10.291.022,10.927-7.815.778-7.815.778Z" transform="translate(-1996.452 -1111.975)" fill="#f87d41"/>
          </g>
        </g>
        <g id="Group_20062" data-name="Group 20062" transform="translate(252.426 396.021)">
          <path id="Path_77254" data-name="Path 77254" d="M1976.29,1829.556a117.888,117.888,0,0,1-37.631-14.293,2.139,2.139,0,0,0-1.719-.135c-13.66,4.672-22.354,2.207-27.272.331a2.541,2.541,0,0,0-3.235,1.333c-2.635,6.057-2.757,18.466-1.208,23.469a2.567,2.567,0,0,0,2.364,1.815c19.914.706,51.548,1.455,72.667-.278a2.547,2.547,0,0,0,2.219-1.748c.565-1.74,1.089-4.308.552-5.425A9.758,9.758,0,0,0,1976.29,1829.556Z" transform="translate(-1904.219 -1815.008)" fill="#f87d41"/>
          <path id="Path_77255" data-name="Path 77255" d="M1907.157,1878.344c19.913.706,51.546,1.455,72.668-.278a2.546,2.546,0,0,0,2.218-1.748,18.362,18.362,0,0,0,.589-2.337,10.085,10.085,0,0,1,.979,1.49c.538,1.117.014,3.685-.552,5.425a2.545,2.545,0,0,1-2.218,1.748c-21.122,1.733-52.754.984-72.667.28a2.567,2.567,0,0,1-2.365-1.816,22.222,22.222,0,0,1-.742-4.014A2.543,2.543,0,0,0,1907.157,1878.344Z" transform="translate(-1904.813 -1855.857)" fill="#231e3b"/>
          <g id="Group_20059" data-name="Group 20059" transform="translate(46.303 6.687)">
            <path id="Path_77256" data-name="Path 77256" d="M2057.263,1837.088a31.215,31.215,0,0,0-2.349,4.469c-.358.958,1.175,1.371,1.53.421a28.933,28.933,0,0,1,2.189-4.089.794.794,0,0,0-1.371-.8Z" transform="translate(-2054.861 -1836.717)" fill="#231e3b"/>
          </g>
          <g id="Group_20060" data-name="Group 20060" transform="translate(54.599 10.045)">
            <path id="Path_77257" data-name="Path 77257" d="M2083.52,1848.021a8.625,8.625,0,0,0-1.668,4.543c-.081,1.018,1.508,1.012,1.587,0a7.13,7.13,0,0,1,1.451-3.741c.611-.819-.766-1.611-1.37-.8Z" transform="translate(-2081.848 -1847.682)" fill="#231e3b"/>
          </g>
          <g id="Group_20061" data-name="Group 20061" transform="translate(39.549 3.985)">
            <path id="Path_77258" data-name="Path 77258" d="M2035.572,1828.141a6.568,6.568,0,0,0-2.683,4.607c-.083,1.018,1.505,1.012,1.587,0a4.9,4.9,0,0,1,1.9-3.238c.82-.593.028-1.972-.8-1.37Z" transform="translate(-2032.886 -1827.992)" fill="#231e3b"/>
          </g>
        </g>
        <path id="Path_77259" data-name="Path 77259" d="M1624.265,801.495l-36.465-5.741,16.116-70.467,20.894,30.185-.151,11.868Z" transform="translate(-1432.634 -664.214)" fill="#fcb197"/>
        <g id="Group_20078" data-name="Group 20078" transform="translate(26.304 202.799)">
          <g id="Group_20077" data-name="Group 20077" transform="translate(0 0)">
            <circle id="Ellipse_421" data-name="Ellipse 421" cx="68.4" cy="68.4" r="68.4" transform="translate(0 188.646) rotate(-45)" fill="#0c0a14"/>
            <path id="Path_77260" data-name="Path 77260" d="M1430.9,1704.365a43.5,43.5,0,1,1-43.324-43.679A43.5,43.5,0,0,1,1430.9,1704.365Z" transform="translate(-1289.996 -1514.898)" fill="#bbb7cf"/>
            <path id="Path_77261" data-name="Path 77261" d="M1413.865,1848.01l-7.936,26.366a43.36,43.36,0,0,1-12.1-7.278Z" transform="translate(-1324.588 -1644.648)" fill="#d9d4f0"/>
            <circle id="Ellipse_422" data-name="Ellipse 422" cx="18.16" cy="18.16" r="18.16" transform="translate(71.713 189.29) rotate(-45)" fill="#231e3b"/>
            <g id="Group_20063" data-name="Group 20063" transform="translate(308.485 91.914)">
              <circle id="Ellipse_423" data-name="Ellipse 423" cx="68.4" cy="68.4" r="68.4" transform="translate(0 96.733) rotate(-45)" fill="#0c0a14"/>
              <path id="Path_77262" data-name="Path 77262" d="M2435.611,1697.626a44.1,44.1,0,0,1-.493,6.391,43.536,43.536,0,1,1,.493-6.391Z" transform="translate(-2294.388 -1602.142)" fill="#bbb7cf"/>
              <path id="Path_77263" data-name="Path 77263" d="M2567.217,1811.5a43.2,43.2,0,0,1-4.506,13.7l-23.375-16.075Z" transform="translate(-2426.49 -1709.62)" fill="#d9d4f0"/>
              <circle id="Ellipse_424" data-name="Ellipse 424" cx="18.16" cy="18.16" r="18.16" transform="matrix(0.982, -0.188, 0.188, 0.982, 77.327, 80.881)" fill="#231e3b"/>
            </g>
            <path id="Path_77264" data-name="Path 77264" d="M1629.825,1328.573s-61.523,57.467-97.1,90.676c-.013,0-.013.019-.013.019-2.2,2.057-4.327,4.026-6.3,5.88-.774.724-1.509,1.415-2.232,2.088-2.063,1.931-3.963,3.711-5.692,5.312-.472.44-.931.861-1.371,1.265a7.149,7.149,0,0,1-1.95,1.314,3.228,3.228,0,0,1-.309.126,7.023,7.023,0,0,1-2.755.506c-.114,0-.233-.006-.358-.006-14.931-.233-77.417-1.226-110.664-1.724-3.578-.07-6.811-.113-9.6-.157-.315-.006-.624-.006-.925-.013-1.333-.019-2.56-.032-3.679-.051-1.428-.013-2.673-.032-3.679-.044-.3-.019-.565-.019-.817-.019a2.792,2.792,0,0,1-2.656-1.993c-2.359-8.126-6.451-31.077-15.215-53.946-3.409-8.9-9.529-15.925-20.654-18.755a44.851,44.851,0,0,0-8.6-1.259c-48.743-2.717-78.531-2.076-120.89-2.15a2.783,2.783,0,0,1-2.736-3.162c11.41-82.224,124.7-55.939,148.685-43.24,1.391,1.069,43.257,12.057,41.008,111.62v.032c7.715.44,32.209,1.792,94.028.38,3.051-.063,6.145-.126,9.246-.207,72.506-97.783,12.259-196.955,12.321-213.5,0-.044.163-.044.453,0,2.232.314,11.636,2.761,12.534,3.068a98.519,98.519,0,0,1,12.346,5.131,94.1,94.1,0,0,1,8.365,4.731l.057.038c.7.45,1.32.861,1.859,1.227a132.878,132.878,0,0,1,22.123,18.824c1.119,1.164,2.232,2.34,3.326,3.535q1.123,1.236,2.232,2.484,1.161,1.32,2.3,2.649c.277.315.54.632.8.944.491.573.975,1.138,1.46,1.723,12.46,14.906,22.857,31.61,31.919,48.763a283.365,283.365,0,0,1,13.088,27.794Z" transform="translate(-1198.371 -1201.032)" fill="#f16e2d"/>
            <g id="Group_20065" data-name="Group 20065" transform="translate(369.341 146.167)">
              <path id="Path_77265" data-name="Path 77265" d="M2385.67,1677.4l32.38,35.24Z" transform="translate(-2380.904 -1672.641)" fill="#f16e2d"/>
              <g id="Group_20064" data-name="Group 20064" transform="translate(0 0)">
                <path id="Path_77266" data-name="Path 77266" d="M2407.317,1706.672a4.748,4.748,0,0,1-3.509-1.539l-32.379-35.24a4.762,4.762,0,1,1,7.013-6.444l32.38,35.24a4.762,4.762,0,0,1-3.5,7.985Z" transform="translate(-2370.173 -1661.908)" fill="#f16e2d"/>
              </g>
            </g>
            <g id="Group_20067" data-name="Group 20067" transform="translate(92.731 144.635)">
              <path id="Path_77267" data-name="Path 77267" d="M1512.406,1672.42l-26.68,39.733Z" transform="translate(-1480.974 -1667.658)" fill="#b7b2c4"/>
              <g id="Group_20066" data-name="Group 20066" transform="translate(0 0)">
                <path id="Path_77268" data-name="Path 77268" d="M1475,1706.183a4.763,4.763,0,0,1-3.949-7.418l26.68-39.733a4.763,4.763,0,0,1,7.908,5.312l-26.68,39.734a4.759,4.759,0,0,1-3.959,2.1Z" transform="translate(-1470.239 -1656.925)" fill="#f16e2d"/>
              </g>
            </g>
            <path id="Path_77269" data-name="Path 77269" d="M2464.52,1623.929l79.192-3.595s-5.916-28.819-47.6-30.886C2469.579,1596.344,2464.52,1623.929,2464.52,1623.929Z" transform="translate(-2066.182 -1465.559)" fill="#f16e2d"/>
            <g id="Group_20068" data-name="Group 20068" transform="translate(353.301 105.069)">
              <path id="Path_77270" data-name="Path 77270" d="M2363.4,1580.7a1.021,1.021,0,0,1-.769-.348l-44.4-50.449a1.025,1.025,0,1,1,1.539-1.354l44.4,50.449a1.025,1.025,0,0,1-.768,1.7Z" transform="translate(-2317.98 -1528.204)" fill="#f77c40"/>
            </g>
            <g id="Group_20073" data-name="Group 20073" transform="translate(13.233)">
              <g id="Group_20072" data-name="Group 20072" transform="translate(0 6.531)">
                <g id="Group_20069" data-name="Group 20069" transform="translate(178.961 0)">
                  <path id="Path_77271" data-name="Path 77271" d="M1998.122,1265.139l-.516-.584c-15.409-17.328-44.016-3.61-39.976,19.209,6.478,36.58,6.521,85.5-21.628,135.557-.013,0-.013.019-.013.019-2.2,2.057-4.327,4.026-6.3,5.88-.774.724-1.509,1.415-2.232,2.088-2.063,1.93-3.963,3.711-5.692,5.312-.472.453-.931.885-1.371,1.289a6.69,6.69,0,0,1-1.95,1.3,2.642,2.642,0,0,1-.309.126,7.043,7.043,0,0,1-2.755.506c-.113,0-.233-.006-.358-.006-14.931-.233-77.417-1.227-110.664-1.724-3.578-.07-7.727-.113-10.518-.157,6.187-7.521,10.757-13.012,10.757-13.012,14.334.421,51.712,1.259,94.028.409,3.049-.063,6.145-.126,9.246-.207,72.506-97.783,12.259-196.957,12.321-213.5h.453c11.648.063,26.182,8.366,33.246,12.932l.057.038c1.8,1.164,3.113,2.082,3.749,2.547a169.11,169.11,0,0,1,13.422,10.856c.759.692,1.5,1.384,2.232,2.094q2.33,2.226,4.579,4.553c1.119,1.164,2.232,2.34,3.326,3.535.749.818,1.5,1.644,2.232,2.484q1.161,1.32,2.3,2.647c.276.315.54.632.8.944,1.391,1.635,2.749,3.3,4.075,4.962.617.787,1.227,1.56,1.824,2.346.44.567.885,1.138,1.308,1.7.692.893,1.365,1.8,2.044,2.717C1996.617,1263.052,1997.363,1264.09,1998.122,1265.139Z" transform="translate(-1793.838 -1207.637)" fill="#f87d41"/>
                </g>
                <g id="Group_20070" data-name="Group 20070" transform="translate(132.181 151.345)">
                  <path id="Path_77272" data-name="Path 77272" d="M1688.421,1774.975q-2-.023-3.678-.047c-1.431-.031-2.673-.047-3.678-.047-.3-.016-.567-.016-.817-.016a2.8,2.8,0,0,1-2.656-2c-2.359-8.126-6.451-31.075-15.216-53.946-3.415-8.9-9.525-15.923-20.655-18.752a1.13,1.13,0,0,1-.063-.157c23.075,0,32.9,30.667,35.556,37.583A305.314,305.314,0,0,1,1688.421,1774.975Z" transform="translate(-1641.658 -1700.014)" fill="#f16e2d"/>
                </g>
                <g id="Group_20071" data-name="Group 20071" transform="translate(0 87.414)">
                  <path id="Path_77273" data-name="Path 77273" d="M1375.14,1524.977a42.261,42.261,0,0,1,10.9,6.569c-11.342-20.9-24.939-24.639-25.72-25.239-23.985-12.7-137.272-38.984-148.685,43.234a2.782,2.782,0,0,0,2.736,3.162c5.477.011,10.74.009,15.863,0C1253.1,1489.588,1352.816,1513.164,1375.14,1524.977Z" transform="translate(-1211.604 -1492.035)" fill="#f87d41"/>
                </g>
              </g>
              <path id="Path_77274" data-name="Path 77274" d="M2185.732,1213.156a3.84,3.84,0,0,1-5.36-4.333l4.192-18.508c.8-3.542,3.966-5.3,7.763-2.656l26.435,16.537Z" transform="translate(-1882.535 -1186.382)" fill="#f87d41"/>
            </g>
            <g id="Group_20074" data-name="Group 20074" transform="translate(19.825 105.168)">
              <path id="Path_77275" data-name="Path 77275" d="M1233.571,1573.377a.548.548,0,0,1-.095-.009.529.529,0,0,1-.426-.615,61.613,61.613,0,0,1,8.843-20.63c6.415-9.638,18.583-21.553,40.113-23.578a.529.529,0,1,1,.1,1.053c-21.114,1.986-33.042,13.66-39.336,23.11a60.393,60.393,0,0,0-8.683,20.237A.529.529,0,0,1,1233.571,1573.377Z" transform="translate(-1233.041 -1528.543)" fill="#f77c40"/>
            </g>
            <g id="Group_20075" data-name="Group 20075" transform="translate(426.18 131.332)">
              <path id="Path_77276" data-name="Path 77276" d="M2594.054,1635.084a.527.527,0,0,1-.464-.276c-.1-.177-10.006-17.751-38-20.085a.529.529,0,0,1,.087-1.054c14.925,1.245,24.677,6.771,30.229,11.188a34.821,34.821,0,0,1,8.6,9.444.528.528,0,0,1-.464.782Z" transform="translate(-2555.109 -1613.667)" fill="#f87d41"/>
            </g>
            <g id="Group_20076" data-name="Group 20076" transform="translate(291.783 128.809)">
              <path id="Path_77277" data-name="Path 77277" d="M2118.361,1710.392a.53.53,0,0,1-.29-.973c.092-.061,9.423-6.272,20.137-22.068,9.893-14.585,23.02-40.556,29.38-81.455a.529.529,0,0,1,1.045.163c-6.4,41.137-19.622,67.271-29.6,81.95-10.828,15.944-20.3,22.236-20.39,22.3a.528.528,0,0,1-.286.086Z" transform="translate(-2117.832 -1605.449)" fill="#f77c40"/>
            </g>
          </g>
          <path id="Path_77278" data-name="Path 77278" d="M1478.67,1509c-.649,1.315-3.659,3.271-5.028,2.742-62.626-24.177-120.494-22.034-120.494-22.034-3.39-.792-.93-10.011,2.551-9.966,0,0,90.655-3.993,122.091,8.082a3.919,3.919,0,0,1,1.922,1.627C1482.97,1494.731,1482.376,1501.473,1478.67,1509Z" transform="translate(-1295.287 -1389.132)" fill="#0c0a14"/>
        </g>
        <path id="Path_77279" data-name="Path 77279" d="M1627.607,1349.327c34.9-3.794,89.519-6.384,96.893,8.367,10.21,20.418-.733,135.7-1.6,136.259-5.277,3.4-14.466,4.472-17.5,2.237-.31-45.2-5.644-62.214-11.23-97.965-24.574,4.527-81-3.206-102.567-17.031-7.528-4.827-8.727-19.337-5.413-28.187C1587.664,1352.274,1627.607,1349.327,1627.607,1349.327Z" transform="translate(-1430.308 -1094.406)" fill="#6e0a40"/>
        <g id="Group_20083" data-name="Group 20083" transform="translate(118.733 249.938)">
          <path id="Path_77280" data-name="Path 77280" d="M1539.945,1342.9c41-1.518,76.953,2.463,81.41,14.213,10.208,20.418,6.23,136.937,5.248,137.233-12.079,3.668-17.4,3.816-29.249.114-8.164-53.071-9.714-57.433-15.3-93.186-16.612-3.647-83.465-7.293-107.777-17.017-8.3-3.322-4.843-31.115.253-41.054,1.337-.669,20.15,2.378,65.069-3.458C1539.717,1341,1539.755,1341.775,1539.945,1342.9Z" transform="translate(-1469.282 -1339.746)" fill="#6e0a40"/>
          <g id="Group_20082" data-name="Group 20082" transform="translate(124.652 152.425)">
            <path id="Path_77281" data-name="Path 77281" d="M1946.89,1850.325c-22.767-4.427-36.455-13.923-38.38-14.662a.443.443,0,0,0-.3,0c-15.365,5.457-24.578,1.929-29.254.048a.928.928,0,0,0-1.124.34c-3.72,5.692-3.73,22.342-1.468,26.288a.925.925,0,0,0,.772.471c19.783.714,52.054,1.518,73.551-.228a2.8,2.8,0,0,0,2.449-1.95c.54-1.733,1.012-4.16.491-5.237A9.754,9.754,0,0,0,1946.89,1850.325Z" transform="translate(-1874.819 -1835.637)" fill="#f87d41"/>
            <path id="Path_77282" data-name="Path 77282" d="M1877.768,1899.444c19.913.706,51.546,1.453,72.668-.28a2.545,2.545,0,0,0,2.219-1.748,18.487,18.487,0,0,0,.589-2.339,10.077,10.077,0,0,1,.979,1.489c.539,1.117.014,3.686-.551,5.425a2.547,2.547,0,0,1-2.219,1.748c-21.122,1.733-52.754.986-72.667.278a2.567,2.567,0,0,1-2.365-1.815,22.245,22.245,0,0,1-.742-4.015,2.544,2.544,0,0,0,2.091,1.256Z" transform="translate(-1875.411 -1876.806)" fill="#231e3b"/>
            <g id="Group_20079" data-name="Group 20079" transform="translate(54.599 10.182)">
              <path id="Path_77283" data-name="Path 77283" d="M2054.12,1869.111a8.626,8.626,0,0,0-1.669,4.543c-.081,1.018,1.507,1.012,1.587,0a7.13,7.13,0,0,1,1.451-3.742c.611-.82-.766-1.612-1.37-.8Z" transform="translate(-2052.448 -1868.771)" fill="#231e3b"/>
            </g>
            <g id="Group_20080" data-name="Group 20080" transform="translate(46.322 6.271)">
              <path id="Path_77284" data-name="Path 77284" d="M2027.946,1856.315a9.319,9.319,0,0,0-2.414,5.337c-.095,1.012,1.492,1.012,1.587,0a7.464,7.464,0,0,1,1.949-4.216c.656-.775-.462-1.9-1.122-1.123Z" transform="translate(-2025.528 -1856.051)" fill="#231e3b"/>
            </g>
            <g id="Group_20081" data-name="Group 20081" transform="translate(39.549 3.602)">
              <path id="Path_77285" data-name="Path 77285" d="M2006.07,1847.461c-1.75.971-2.515,3.306-2.576,5.186-.034,1.022,1.553,1.021,1.587,0a4.615,4.615,0,0,1,1.791-3.811c.893-.5.094-1.866-.8-1.371Z" transform="translate(-2003.493 -1847.359)" fill="#231e3b"/>
            </g>
          </g>
        </g>
        <g id="Group_20085" data-name="Group 20085" transform="translate(125.687 92.474)">
          <path id="Path_77286" data-name="Path 77286" d="M1574.9,942.875l-5.818,42.455-4.047,29.555s-1.719,23.34-3.132,30.716c-12.722,12.042-70.015,2.805-70.015,2.805,6.5-54.619,16.092-93.924,19.381-116.364a71.135,71.135,0,0,1,4.464-15.827,40.294,40.294,0,0,1,2.177-4.6l.014-.032c.272-.479.524-.909.778-1.289l9.778.1h.062l36.269.4c.863,0,1.771.692,2.64,1.887C1570.967,917.4,1574.357,930.158,1574.9,942.875Z" transform="translate(-1491.888 -884.833)" fill="#ffccbc"/>
          <path id="Path_77287" data-name="Path 77287" d="M1671.935,1048.755l-4.047,29.555c-33.259-35.115-29.3-72.214-23.876-76.436C1654.291,1002.235,1665.637,1026.368,1671.935,1048.755Z" transform="translate(-1594.746 -948.264)" fill="#ffccbc" opacity="0.25"/>
          <path id="Path_77288" data-name="Path 77288" d="M1569.089,853.942c-1.215-3.289-2.353-6.241-3.146-8.272a6.911,6.911,0,0,1,.587-6.223c2.79-4.374,7.479-9.942,11.44-11.844a1.761,1.761,0,0,1,1.991.354,46.581,46.581,0,0,0,33.315,12.544c3.969-.07,4.389,2.656,4.47,5.631.2,7.416-.118,7.984-.118,7.984C1616.495,855.437,1572.77,855.309,1569.089,853.942Z" transform="translate(-1542.847 -827.439)" fill="#ffccbc"/>
          <g id="Group_20084" data-name="Group 20084" transform="translate(24.777 26.099)">
            <path id="Path_77289" data-name="Path 77289" d="M1572.49,915.476c14.463,4.047,27.076-1.735,49.986-1.735.607,0,0-1.057-.613-1.021a314.971,314.971,0,0,1-48.016-.365A13.371,13.371,0,0,0,1572.49,915.476Z" transform="translate(-1572.49 -912.356)" fill="#ffccbc"/>
          </g>
        </g>
        <g id="Group_20086" data-name="Group 20086" transform="translate(91.214 421.119)" opacity="0.22">
          <path id="Path_77290" data-name="Path 77290" d="M1411.5,1926.378h-.24a59.226,59.226,0,0,1-31.354-9.093.53.53,0,0,1,.564-.9,58.174,58.174,0,0,0,30.794,8.931h.231a58.634,58.634,0,0,0,50.067-28.385.53.53,0,0,1,.908.545,59.352,59.352,0,0,1-50.972,28.9Z" transform="translate(-1379.685 -1896.679)" fill="#fff"/>
        </g>
        <g id="Group_20089" data-name="Group 20089" transform="translate(0 93.835)">
          <path id="Path_77291" data-name="Path 77291" d="M1515.98,965.78s20.466-55.257,68.437-47.889c2.2,1.148,3.668,6.062,3.39,8.759-45.087-4.563-70.065,63.9-69.993,62.22S1515.98,965.78,1515.98,965.78Z" transform="translate(-1382.889 -890.983)" fill="#f87d41"/>
          <g id="Group_20088" data-name="Group 20088">
            <g id="Group_20087" data-name="Group 20087">
              <path id="Path_77292" data-name="Path 77292" d="M1208.513,1007.751l-124.229-20.364A1.553,1.553,0,0,1,1083,985.6l22.17-135.237a1.553,1.553,0,0,1,1.785-1.282l124.229,20.363a1.554,1.554,0,0,1,1.281,1.785l-22.17,135.237A1.554,1.554,0,0,1,1208.513,1007.751Z" transform="translate(-1082.981 -843.777)" fill="#f87d41"/>
              <rect id="Rectangle_12395" data-name="Rectangle 12395" width="136.007" height="31.742" rx="3.39" transform="translate(17.053 0) rotate(9.31)" fill="#f87d41"/>
              <path id="Path_77293" data-name="Path 77293" d="M1134.64,948.747l128.854,5.875L1136.563,936.48Z" transform="translate(-1118.755 -904.326)" fill="#f16e2d"/>
            </g>
          </g>
        </g>
        <g id="Group_20100" data-name="Group 20100" transform="translate(153.212 5.716)">
          <path id="Path_77294" data-name="Path 77294" d="M1676.916,817.639c-11.144-9-13.689-17.815-13.689-17.815a63.36,63.36,0,0,0,13.8,10.245Z" transform="translate(-1638.091 -721.554)" fill="#faa88c"/>
          <g id="Group_20099" data-name="Group 20099" transform="translate(0 0)">
            <path id="Path_77295" data-name="Path 77295" d="M1658.989,664.2c14.737,6.568,11.83-.684,15.581-12.413,3.185-9.958,6.172-31.688,4.641-47.16-1.022-10.316-5.926-12.5-12.2-18.642-12.842-12.572-34.454-6.1-38.643,11.372-3.13,13.058-1.093,41.529,5.979,48.243C1644.115,654.875,1652.02,660.846,1658.989,664.2Z" transform="translate(-1612.954 -568.903)" fill="#fcb197"/>
            <g id="Group_20096" data-name="Group 20096">
              <path id="Path_77296" data-name="Path 77296" d="M1583.584,595.788c.594,1.222,1.276,2.4,1.955,3.582l3.189,5.53c1.921,3.332,3.911,6.744,6.908,9.157s3.439-8.427,3.629-9.715c.749-5.068,1.9-12.83,7.6-14.623,6.892-2.164,12.47-1.444,19.578-1.759,4.266-.188,12.995.6,17.27.6,5.268,0,7.438-.267,10.8-2.468,4.447-2.909,4.553-10.435,2.547-15.006a6.446,6.446,0,0,0-.645-1.164c-.051-.071-.431-.435-.431-.506a9.045,9.045,0,0,1-.171,1.547,2.484,2.484,0,0,1-.968,1.406,3.188,3.188,0,0,1-3.276.309,2.186,2.186,0,0,1-.912-.746c-.669-1.027,0-2.353.429-3.5a6.682,6.682,0,0,0,.167-4.457c-.4-1.15-1.858-1.8-2.189-2.673-.445-1.175.946-1.313.807-2.645a4.241,4.241,0,0,0-2.13-2.732,28.079,28.079,0,0,0-13.407-4.824c1.092-.546,2.349-1.391,2.217-2.6-.111-1.1-1.332-1.7-2.392-2.034-9.2-2.831-19.471-.741-27.707,4.23a5.455,5.455,0,0,1-1.562.732,2.664,2.664,0,0,1-.318.046c-3.075.195-3.691-3.84-7.2-2.89a11.223,11.223,0,0,0-3.71,2.13,24.088,24.088,0,0,0-5.431,5.091,20.588,20.588,0,0,0-2.324,4.837,71.011,71.011,0,0,0-4.238,24.134,24.415,24.415,0,0,0,1,8.908A22.59,22.59,0,0,0,1583.584,595.788Z" transform="translate(-1581.607 -545.191)" fill="#161325"/>
              <g id="Group_20095" data-name="Group 20095" transform="translate(2.76 8.011)">
                <g id="Group_20090" data-name="Group 20090" transform="translate(24.914 0)">
                  <path id="Path_77297" data-name="Path 77297" d="M1672.289,575.083a19.386,19.386,0,0,1,15.4-1.89l-.21-.955-3.743,2.838c-.434.329-.071.917.358.98a40.478,40.478,0,0,1,9.5,2.592c1.348.557,4.46,1.331,3.005,2.986-.4.458-.759.464-.961,1.122a.575.575,0,0,0,.233.649,28.968,28.968,0,0,1,5.421,3.945,20.809,20.809,0,0,1,2.356,2.494c.506.655.821,1.94.044,2.6-.371.314-1.787.1-2.229.1l-15.431.142c-.725.006-.778,1.138-.048,1.13l9.595-.087a47.22,47.22,0,0,0,8.095-.142c4.738-.906-.567-6.142-2.048-7.462a29.249,29.249,0,0,0-2.53-2.024c-.46-.328-.992-.6-1.427-.954-.956-.783-.578-.119-.171-.716.575-.842,1.442-1.081.731-2.326-.954-1.67-4.073-2.49-5.722-3.1a41.948,41.948,0,0,0-8.361-2.084l.358.982,3.744-2.838a.569.569,0,0,0-.209-.954,20.529,20.529,0,0,0-16.272,1.967c-.632.365-.1,1.367.529,1Z" transform="translate(-1671.48 -571.254)" fill="#1a162b"/>
                </g>
                <g id="Group_20091" data-name="Group 20091" transform="translate(23.438 23.774)">
                  <path id="Path_77298" data-name="Path 77298" d="M1695.719,654.077a34.235,34.235,0,0,1-28.185-5.386c-.593-.425-1.2.529-.611.951a35.354,35.354,0,0,0,29.052,5.536.565.565,0,0,0-.253-1.1Z" transform="translate(-1666.683 -648.585)" fill="#1a162b"/>
                </g>
                <g id="Group_20092" data-name="Group 20092" transform="translate(4.638 35.364)">
                  <path id="Path_77299" data-name="Path 77299" d="M1607.059,686.576a18.118,18.118,0,0,0,.7,16.173c.369.623,1.371.1,1-.529a17,17,0,0,1-.75-15.032c.325-.645-.623-1.265-.951-.612Z" transform="translate(-1605.486 -686.299)" fill="#1a162b"/>
                </g>
                <g id="Group_20093" data-name="Group 20093" transform="translate(0 5.1)">
                  <path id="Path_77300" data-name="Path 77300" d="M1598.023,587.875c-7.083,3.66-9.233,12.313-6.395,19.447.268.674,1.265.142,1-.529-2.607-6.566-.573-14.558,5.925-17.919a.565.565,0,0,0-.529-1Z" transform="translate(-1590.415 -587.815)" fill="#1a162b"/>
                </g>
                <g id="Group_20094" data-name="Group 20094" transform="translate(10.93 14.489)">
                  <path id="Path_77301" data-name="Path 77301" d="M1628.322,618.6c-1.558,2.512-2.891,5.9-2.129,8.883a.565.565,0,0,0,1.1-.253c-.685-2.68.585-5.77,1.977-8.018a.565.565,0,0,0-.951-.611Z" transform="translate(-1625.972 -618.352)" fill="#1a162b"/>
                </g>
              </g>
            </g>
            <g id="Group_20098" data-name="Group 20098" transform="translate(14.39 43.699)">
              <path id="Path_77302" data-name="Path 77302" d="M1639.11,694.581c-.272-3.542-2.966-7.484-5.8-7.217-8.55.806-4.174,15.422-1.709,17.581,1.544,1.358,3.586.41,5.109-.616a3.93,3.93,0,0,0,1.7-2.87Z" transform="translate(-1628.267 -687.351)" fill="#fcb197"/>
              <g id="Group_20097" data-name="Group 20097" transform="translate(2.805 4.862)">
                <path id="Path_77303" data-name="Path 77303" d="M1641.2,703.457a2.472,2.472,0,0,0-3.657,1.286c-.672,2.15.885,4.5,1.576,6.41.126.343.687.219.56-.126a34.8,34.8,0,0,1-1.405-3.652,5.914,5.914,0,0,1-.253-2.036c.153-1.218,1.771-2.3,2.868-1.391.286.235.594-.253.311-.484Z" transform="translate(-1637.379 -703.075)" fill="#faa88c"/>
              </g>
            </g>
            <path id="Path_77304" data-name="Path 77304" d="M1784.12,726.27a61.079,61.079,0,0,1,7.494-6.734.928.928,0,0,0,.253-1.109,39.323,39.323,0,0,1-3.784-18.283Z" transform="translate(-1721.821 -652.51)" fill="#fcb197"/>
          </g>
        </g>
        <g id="Group_20101" data-name="Group 20101" transform="translate(201.876 53.592)">
          <path id="Path_77305" data-name="Path 77305" d="M1751.521,701.591c-3.529-1.375-8-.4-11.367,1.329-.727.379-.347,1.41.412,1.1a17.787,17.787,0,0,1,10.084-.641C1751.445,703.587,1751.812,702.035,1751.521,701.591Z" transform="translate(-1739.765 -700.94)" fill="#010001"/>
        </g>
        <g id="Group_20102" data-name="Group 20102" transform="translate(205.164 79.494)">
          <path id="Path_77306" data-name="Path 77306" d="M1750.652,786.229a15.809,15.809,0,0,0,9.143,3.794c.815.065.868-1.205.053-1.265a14.344,14.344,0,0,1-8.26-3.387c-.615-.524-1.557.33-.935.859Z" transform="translate(-1750.449 -785.208)" fill="#010001"/>
        </g>
        <g id="Group_20104" data-name="Group 20104" transform="translate(206.415 60.104)">
          <path id="Path_77307" data-name="Path 77307" d="M1761.606,724.449a2.236,2.236,0,0,0-.6-.089,1,1,0,0,0-.345.042c-.982.345-.612,1.518-.082,1.84a1.574,1.574,0,0,0,1.29-.126,1.52,1.52,0,0,0,.335-.971C1762.251,724.76,1761.948,724.553,1761.606,724.449Z" transform="translate(-1758.356 -723.673)" fill="#010001"/>
          <g id="Group_20103" data-name="Group 20103" transform="translate(0 0)">
            <path id="Path_77308" data-name="Path 77308" d="M1755.414,723.716a6.368,6.368,0,0,1,4.57-.054.635.635,0,1,0,.389-1.209,7.579,7.579,0,0,0-5.461.362c-.759.295-.253,1.2.506.9Z" transform="translate(-1754.536 -722.106)" fill="#010001"/>
          </g>
        </g>
        <g id="Group_20105" data-name="Group 20105" transform="translate(171.851 135.557)">
          <path id="Path_77309" data-name="Path 77309" d="M2166.824,1203.266s11.793-1.138,18.906,2.438a1.991,1.991,0,0,1,.4.263c5.041,4.282,5.962,14.214-.205,16.845-1.474.632-6.786.6-6.786.6s4.763-6.094,2.929-8.29c-1.99-2.383-15.547-1.352-15.547-1.352Z" transform="translate(-2005.328 -1130.714)" fill="#fcb197"/>
          <path id="Path_77310" data-name="Path 77310" d="M2156.817,1212.158a8.348,8.348,0,0,1-2.847.632c-.6.076-1.214.138-1.752.2-.941.086-1.644.138-1.644.138l1.656-12.847s5.167-.1,5.573.707S2157.778,1211.134,2156.817,1212.158Z" transform="translate(-1994.278 -1128.761)" fill="#f87d41"/>
          <path id="Path_77311" data-name="Path 77311" d="M2157.687,1213.028c-.6.076-1.214.138-1.752.2l.67-12.605S2160.887,1204.4,2157.687,1213.028Z" transform="translate(-1997.995 -1129.002)" fill="#6fb2e6" opacity="0.25"/>
          <path id="Path_77312" data-name="Path 77312" d="M1643.989,999.158c2.909,9.668,26.22,57.508,54.582,67.794,31.2,5.643,80.645-2.856,102.059-15.129,1.479-1.74,1.819-7.958.41-12.133a1.726,1.726,0,0,0-1.444-1.189c-10.487-1.138-70.97-1.581-89.354-8.452-2.9-1.081-18.786-24.391-24.527-33.165-6.875-10.507-16.245-38.005-36.207-26.533C1640.03,975.8,1641.4,990.5,1643.989,999.158Z" transform="translate(-1642.081 -967.604)" fill="#ffccbc"/>
        </g>
        <g id="Group_20106" data-name="Group 20106" transform="translate(334.245 215.492)">
          <circle id="Ellipse_425" data-name="Ellipse 425" cx="7.452" cy="7.452" r="7.452" transform="translate(0 14.715) rotate(-80.852)" fill="#f87d41"/>
          <circle id="Ellipse_426" data-name="Ellipse 426" cx="6.533" cy="6.533" r="6.533" transform="matrix(0.297, -0.955, 0.955, 0.297, 0.364, 13.539)" fill="#f16e2d"/>
        </g>
        <g id="Group_20107" data-name="Group 20107" transform="translate(402.32 419.072)" opacity="0.22">
          <path id="Path_77313" data-name="Path 77313" d="M2423.652,1919.634h-.24a59.229,59.229,0,0,1-31.353-9.093.53.53,0,0,1,.565-.9,58.162,58.162,0,0,0,30.793,8.931h.231a58.633,58.633,0,0,0,50.065-28.385.53.53,0,0,1,.908.544,59.353,59.353,0,0,1-50.972,28.9Z" transform="translate(-2391.832 -1889.955)" fill="#fff"/>
        </g>
        <path id="Path_77314" data-name="Path 77314" d="M1579.788,573.577c-.873-3.288-.506-10.258.928-17.538a33.275,33.275,0,0,1,16.161-22.533,51.426,51.426,0,0,1,23.972-6.926c16.5-.092,22.873,11.445,27.593,21.809C1643.408,555.561,1616.67,565.788,1579.788,573.577Z" transform="translate(-1426.758 -526.58)" fill="#f87d41"/>
        <path id="Path_77315" data-name="Path 77315" d="M1764.906,581.617s34.637-4.961,34.437-2.079c-.546,7.9-38.479,13.563-38.479,13.563Z" transform="translate(-1552.507 -562.637)" fill="#f87d41"/>
        <path id="Path_77316" data-name="Path 77316" d="M1729.87,527.671s16.973.362,24.122,17.162c.659,7.209-14.318,12.775-14.318,12.775Z" transform="translate(-1531.032 -527.337)" fill="#f87d41"/>
        <path id="Path_77317" data-name="Path 77317" d="M1643.291,529.805a1.73,1.73,0,0,1,.744-.435l4.648-1.752a.771.771,0,0,1,.557-.038,25.357,25.357,0,0,1,3.353,1.725,2.186,2.186,0,0,1-.317,1.329c-.961,1.651-3.648,3.115-6.089,3.529a7.178,7.178,0,0,1-4.2-.411.3.3,0,0,1-.163-.379A37.574,37.574,0,0,1,1643.291,529.805Z" transform="translate(-1470.034 -527.247)" fill="#f95f14"/>
        <g id="Group_20108" data-name="Group 20108" transform="translate(205.98 35.409)">
          <path id="Path_77318" data-name="Path 77318" d="M1753.422,646.743a21.173,21.173,0,0,1,8.463.885,22.79,22.79,0,0,0,7.051.988c3.219-.283,6.785-2.971,5.85-6.577-.076-.292-.56-.4-.7-.091-.363.828-.379,1.709-.74,2.53a4.7,4.7,0,0,1-3.074,2.542c-2.412.713-4.948.063-7.336-.422-2.716-.551-7.288-2.2-9.739-.229-.2.159.027.407.22.379Z" transform="translate(-1753.124 -641.762)" fill="#1a162b"/>
        </g>
        <g id="Group_20109" data-name="Group 20109" transform="translate(148.142 217.874)" opacity="0.25">
          <path id="Path_77319" data-name="Path 77319" d="M1564.92,1236.614c.283,4.1,2.4,8.239,4.728,11.577a24.268,24.268,0,0,0,10.45,8.25c4.553,2.073,9.17,4.018,13.84,5.8q3.748,1.429,7.532,2.752c2.15.759,4.3,1.857,6.3.292a1.526,1.526,0,0,0,.4-1.506c-.545-2.134-2.8-2.592-4.64-3.237q-3.218-1.126-6.409-2.327c-4.553-1.718-9.09-3.5-13.563-5.431-3.915-1.686-7.6-3.549-10.272-6.981-2.448-3.142-3.66-7.063-6.263-10.059a1.242,1.242,0,0,0-2.1.87Z" transform="translate(-1564.92 -1235.4)" fill="#ffccbc"/>
        </g>
        <g id="Group_20110" data-name="Group 20110" transform="translate(162.035 243.791)" opacity="0.25">
          <path id="Path_77320" data-name="Path 77320" d="M1610.684,1321.74a23.166,23.166,0,0,1,4.456,3.28,23.908,23.908,0,0,0,5.149,2.953,26.643,26.643,0,0,0,5.532,1.645c1.771.317,3.9.956,5.229-.573a1.559,1.559,0,0,0,.239-1.852c-1.165-1.581-2.555-1.307-4.359-1.6a26.109,26.109,0,0,1-5.976-1.75c-3.195-1.348-6.089-4.317-9.729-4.1-.947.056-1.6,1.544-.54,2Z" transform="translate(-1610.139 -1319.732)" fill="#ffccbc"/>
        </g>
        <g id="Group_20111" data-name="Group 20111" transform="translate(168.482 107.07)">
          <path id="Path_77321" data-name="Path 77321" d="M1631.529,876.567a31.262,31.262,0,0,0,11.81,3.7c3.645.495,8.457,1.028,11.931-.424.62-.253.878-1.391,0-1.531a42.186,42.186,0,0,0-5.523-.053,52.9,52.9,0,0,1-5.9-.449,87.523,87.523,0,0,1-11.625-2.879.9.9,0,0,0-.688,1.633Z" transform="translate(-1631.103 -874.908)" fill="#ffc1af"/>
        </g>
        <g id="Group_20112" data-name="Group 20112" transform="translate(162.387 110.794)">
          <path id="Path_77322" data-name="Path 77322" d="M1611.314,887.746c.358,1.45,2.267,2.37,3.524,2.952a10.57,10.57,0,0,0,5.086.95c.936-.038,1.245-1.527.233-1.715a25.834,25.834,0,0,1-4.462-1.265c-1.249-.479-2.489-1.6-3.825-1.644a.582.582,0,0,0-.554.729Z" transform="translate(-1611.296 -887.024)" fill="#ffc1af"/>
        </g>
        <g id="Group_20113" data-name="Group 20113" transform="translate(235.305 197.207)">
          <path id="Path_77323" data-name="Path 77323" d="M1852.094,1168.767a26.788,26.788,0,0,1-1.518,5.112,36.712,36.712,0,0,0-2.068,4.45.6.6,0,0,0,.875.673c3.162-1.848,4.421-6.566,4.394-10.009a.858.858,0,0,0-1.677-.226Z" transform="translate(-1848.491 -1168.16)" fill="#ffc1af"/>
        </g>
        <g id="Group_20114" data-name="Group 20114" transform="translate(241.184 200.915)">
          <path id="Path_77324" data-name="Path 77324" d="M1867.99,1180.929c-.053.152-.116.221-.188.457a3.629,3.629,0,0,0-.063.416q-.015.2-.01.083c-.087.492-.177.976.238,1.364l-.253-.612v.33a.692.692,0,0,0,1.033.593c.092-.057.181-.114.27-.177l-.436.117c.679.054,1.027-.573,1.228-1.109a2.023,2.023,0,0,0-.018-1.463.941.941,0,0,0-1.8,0Z" transform="translate(-1867.654 -1180.264)" fill="#ffc1af"/>
        </g>
        <g id="Group_20115" data-name="Group 20115" transform="translate(156.922 268.815)">
          <path id="Path_77325" data-name="Path 77325" d="M1594.524,1408.988c2.752.777,6.523-.5,9.121-1.439s6.17-2,7.363-4.724a1.109,1.109,0,0,0-.942-1.644c-2.714-.221-5.345,1.739-7.832,2.626-1.391.495-2.782.959-4.209,1.337a13.645,13.645,0,0,0-3.84,1.232,1.447,1.447,0,0,0,.342,2.612Z" transform="translate(-1593.502 -1401.163)" fill="#560a33"/>
        </g>
        <g id="Group_20116" data-name="Group 20116" transform="translate(164.003 8.506)">
          <path id="Path_77326" data-name="Path 77326" d="M1623.63,554.294a15.965,15.965,0,0,0-7.054,8.077c-.081.2.24.326.345.145a25.1,25.1,0,0,1,7-7.728.287.287,0,1,0-.29-.5Z" transform="translate(-1616.563 -554.254)" fill="#f95f14"/>
        </g>
        <g id="Group_20117" data-name="Group 20117" transform="translate(178.546 8.123)">
          <path id="Path_77327" data-name="Path 77327" d="M1663.894,553.375a26.869,26.869,0,0,0,1.954,5.654c.1.162.4.107.379-.1a26.929,26.929,0,0,0-1.771-5.708c-.127-.355-.683-.209-.568.157Z" transform="translate(-1663.874 -553.015)" fill="#f95f14"/>
        </g>
        <g id="Group_20118" data-name="Group 20118" transform="translate(185.148 3.023)">
          <path id="Path_77328" data-name="Path 77328" d="M1685.6,536.907a36.878,36.878,0,0,1,6.509,1.454.235.235,0,0,0,.181-.427,16.256,16.256,0,0,0-6.689-1.539c-.331-.019-.326.487,0,.513Z" transform="translate(-1685.355 -536.395)" fill="#f95f14"/>
        </g>
        <path id="Path_77329" data-name="Path 77329" d="M1148.37,1092.656l-.391,2.368,5.76.949-.579,3.511-5.76-.95-.729,4.418-4.656-.768,2.277-13.808,11.224,1.852-.579,3.511Z" transform="translate(-1123.864 -915.696)" fill="#fff"/>
        <path id="Path_77330" data-name="Path 77330" d="M1131.587,1165.38l6.8,1.122a9.533,9.533,0,0,1,3.935,1.51,6.474,6.474,0,0,1,2.346,2.848,7.48,7.48,0,0,1-1.211,7.336,6.462,6.462,0,0,1-3.138,1.944,9.524,9.524,0,0,1-4.211.167l-6.8-1.123Zm4.933,11.268a3.367,3.367,0,0,0,2.537-.463,3.751,3.751,0,0,0,.8-4.833,3.369,3.369,0,0,0-2.255-1.253l-1.953-.323-1.08,6.549Z" transform="translate(-1115.069 -969.035)" fill="#fff"/>
        <path id="Path_77331" data-name="Path 77331" d="M1194.375,1186.313l-.579,3.511-11.48-1.9,2.277-13.808,11.224,1.852-.579,3.511-6.648-1.1-.267,1.618,5.838.963-.553,3.353-5.838-.963-.3,1.815Z" transform="translate(-1151.783 -975.092)" fill="#fff"/>
        <path id="Path_77332" data-name="Path 77332" d="M1245.095,1115.473l-.579,3.511-11.479-1.9,2.277-13.808,11.224,1.85-.579,3.511-6.648-1.1-.267,1.618,5.838.963-.553,3.353-5.838-.963-.3,1.815Z" transform="translate(-1186.916 -926.021)" fill="#fff"/>
        <path id="Path_77333" data-name="Path 77333" d="M1288.085,1122.383l-.579,3.511-11.48-1.9,2.277-13.808,11.224,1.852-.579,3.511-6.648-1.1-.267,1.618,5.838.963-.553,3.353-5.838-.963-.3,1.815Z" transform="translate(-1216.691 -930.809)" fill="#fff"/>
        <path id="Path_77334" data-name="Path 77334" d="M1227.787,1181.25l4.656.768-1.682,10.2,6.233,1.028-.6,3.61-10.889-1.8Z" transform="translate(-1181.694 -980.024)" fill="#fff"/>
        <path id="Path_77335" data-name="Path 77335" d="M1267.377,1187.78l4.656.768-2.277,13.808-4.656-.768Z" transform="translate(-1209.122 -984.548)" fill="#fff"/>
        <path id="Path_77336" data-name="Path 77336" d="M1306.343,1193.362l-8.116,12.844-4.576-.759-3.562-14.771,5.01.827,1.963,8.611,4.7-7.51Z" transform="translate(-1226.434 -986.558)" fill="#fff"/>
        <path id="Path_77337" data-name="Path 77337" d="M1349.095,1211.833l-.579,3.511-11.481-1.9,2.277-13.808,11.224,1.852-.579,3.511-6.648-1.1-.267,1.618,5.838.962-.553,3.353-5.838-.964-.3,1.815Z" transform="translate(-1258.949 -992.768)" fill="#fff"/>
        <path id="Path_77338" data-name="Path 77338" d="M1386.719,1218.078l-1.265-.209-.573,3.472-4.656-.768,2.277-13.808,6.648,1.1a8.266,8.266,0,0,1,3.229,1.181,5.173,5.173,0,0,1,1.107,7.537,4.806,4.806,0,0,1-2.222,1.437l2.2,4.738-4.971-.82Zm2.9-6.016a2.1,2.1,0,0,0-1.349-.659l-1.7-.28-.534,3.234,1.7.279a2.1,2.1,0,0,0,1.49-.19,1.765,1.765,0,0,0,.393-2.387Z" transform="translate(-1288.864 -997.702)" fill="#fff"/>
        <path id="Path_77339" data-name="Path 77339" d="M1190.989,1106.6l-1.265-.209-.573,3.472-4.655-.768,2.277-13.808,6.648,1.1a8.275,8.275,0,0,1,3.229,1.181,5.173,5.173,0,0,1,1.107,7.538,4.8,4.8,0,0,1-2.222,1.437l2.2,4.739-4.971-.82Zm2.9-6.016a2.1,2.1,0,0,0-1.35-.658l-1.7-.279-.534,3.234,1.7.281a2.1,2.1,0,0,0,1.49-.19,1.763,1.763,0,0,0,.393-2.386Z" transform="translate(-1153.298 -920.488)" fill="#fff"/>
        <path id="Path_77340" data-name="Path 77340" d="M1437.831,1224.083l-.826,5.01-4.655-.768.836-5.069-3.767-9.6,4.911.811,2.034,5.239,3.628-4.3,4.5.743Z" transform="translate(-1322.932 -1002.474)" fill="#fff"/>
        <g id="Group_20121" data-name="Group 20121" transform="translate(81.137 176.818)">
          <g id="Group_20119" data-name="Group 20119" transform="translate(0 0)">
            <path id="Path_77341" data-name="Path 77341" d="M1395.069,1126.093l-1.872-.328a22.539,22.539,0,0,0-16.729-20.213c.457-.483,2.522-2.736,1.475-2.919,0,0-.922-.244-2.038-.482a.6.6,0,0,0-.126-.027l-.126-.025c-1.132-.146-2.082-.228-2.082-.228-1.012-.176.041,2.415.362,3.162a22.544,22.544,0,0,0-23.837,13.212l-2.355-.411a.653.653,0,0,0-.224,1.286l47.32,8.255a.653.653,0,1,0,.224-1.286Z" transform="translate(-1346.977 -1101.863)" fill="#fff"/>
            <path id="Path_77342" data-name="Path 77342" d="M1454.516,1134.7a22.535,22.535,0,0,0-13.786-19.615c5.493,5.554,6.988,13.5,6.731,18.384Z" transform="translate(-1411.899 -1111.016)" fill="#f7fbff"/>
          </g>
          <g id="Group_20120" data-name="Group 20120" transform="translate(3.029 16.057)">
            <path id="Path_77343" data-name="Path 77343" d="M1399.564,1162.249a.29.29,0,0,1-.058,0l-42.431-7.5a.333.333,0,1,1,.116-.656l42.431,7.5a.333.333,0,0,1-.058.661Z" transform="translate(-1356.799 -1154.085)" fill="#f7fbff"/>
          </g>
        </g>
      </g>
    </g>
  </g>
</svg>
