<!DOCTYPE svg PUBLIC "-//W3C//DTD SVG 1.1//EN" "http://www.w3.org/Graphics/SVG/1.1/DTD/svg11.dtd">
<!-- Uploaded to: SVG Repo, www.svgrepo.com, Transformed by: SVG Repo Mixer Tools -->
<svg height="800px" width="800px" version="1.1" id="Capa_1" xmlns="http://www.w3.org/2000/svg" xmlns:xlink="http://www.w3.org/1999/xlink" viewBox="0 0 431.587 431.587" xml:space="preserve" fill="#000000">
<g id="SVGRepo_bgCarrier" stroke-width="0"/>
<g id="SVGRepo_tracerCarrier" stroke-linecap="round" stroke-linejoin="round"/>
<g id="SVGRepo_iconCarrier"> <g> <g> <g> <path style="fill:#e74040;" d="M48.484,0v334.628h105.283l62.031,96.959l62.041-96.959h105.264V0H48.484z M212.008,67.951 c3.078,0,20.576,0.127,23.605,0.352c50.6,3.849,85.821,39.471,104.697,89.084l-243.306,0.694 C117.647,107.267,158.604,67.951,212.008,67.951z M94.209,166.171H344.98v20.547H94.209V166.171z M299.861,193.107l-3.087,2.032 l-5.374-2.032H299.861z M240.908,193.117c-2.706,1.847-6.185,4.045-14.333,6.194c-3.507,0.918-5.745,1.417-7.171,1.68 c-0.664-0.909-2.071-1.827-3.986-1.729l-1.231-2.228c-0.537-1.104-1.28-2.462-2.169-3.918 C212.017,193.117,240.908,193.117,240.908,193.117z M195.34,193.098c-1.905,1.436-3.889,2.579-6.165,2.423 c-3.087-0.107-3.742-0.782-5.315-2.423H195.34z M147.231,193.088L147.231,193.088l-2.96,1.856 c-5.579,3.498-11.382,7.103-17.938,9.458c-11.597,4.143-19.071-6.771-21.543-11.314H147.231z M334.281,250.351H105.542 c-12.301,0-7.552-27.591-7.552-27.591h243.834C341.814,222.76,344.315,250.351,334.281,250.351z M352.532,213.654 L352.532,213.654H122.239l-1.016,0.078l-0.801-0.078H86.656v-20.547h13.786l-3.371,1.847c3.097,7.064,11.412,18.202,23.36,18.7 h1.817c2.013-0.098,4.152-0.459,6.39-1.241c7.318-2.628,13.708-6.614,19.335-10.141c7.992-5.032,14.899-9.36,21.524-7.914 c5.764,1.251,7.513,3.078,9.174,4.836c2.022,2.13,4.309,4.524,10.288,4.729c5.843,0.225,10.112-3.341,13.17-5.911l2.364-2.11 c1.426,1.788,2.276,3.556,3.048,5.11c1.045,2.14,2.394,4.875,5.139,6.038l0.508,0.752c1.925,2.755,4.768,2.364,15.105-0.313 c9.672-2.521,13.844-5.354,16.873-7.425c2.716-1.837,4.045-2.745,8.647-2.745h25.168l18.641,6.995l14.753-9.614l20.762,12.379 l3.547-7.386l-11.001-6.585h26.848V213.654z"/> </g> </g> </g> </g>
</svg>